<svg height="512pt" viewBox="0 0 512 512" width="512pt" xmlns="http://www.w3.org/2000/svg"><path d="m511.996094 489.445312c-.003906-18.070312-10.75-34.320312-27.378906-41.394531l-127.546876-54.265625v-30.515625c11.777344-17.378906 19.183594-37.945312 20.652344-60.109375h15.324219c30.324219 0 55-24.675781 55-55v-44.511718c0-25.902344-18.007813-47.664063-42.152344-53.46875-1.09375-44.167969-11.085937-77.734376-30.453125-102.421876-24.863281-31.691406-65.046875-47.757812-119.441406-47.757812s-94.578125 16.066406-119.441406 47.761719c-19.371094 24.683593-29.359375 58.25-30.453125 102.417969-24.148438 5.804687-42.152344 27.566406-42.152344 53.46875v44.511718c0 30.324219 24.675781 55 55 55h15.324219c1.46875 22.164063 8.875 42.730469 20.652344 60.109375v30.515625l-127.546876 54.265625c-16.628906 7.074219-27.37890575 23.328125-27.37890575 41.398438l-.00390625 7.542969c0 3.980468 1.578125 7.796874 4.394531 10.609374 2.8125 2.8125 6.625 4.394532 10.605469 4.394532h482c3.980469 0 7.796875-1.582032 10.609375-4.394532 2.8125-2.816406 4.390625-6.632812 4.390625-10.609374zm-184.910156-85.136718c.011718.359375.851562 36.765625-20.652344 59.160156-11.808594 12.292969-28.777344 18.523438-50.433594 18.523438-21.578125 0-38.503906-6.1875-50.304688-18.390626-21.761718-22.511718-20.789062-58.976562-20.78125-59.292968.007813-.175782.011719-.351563.011719-.527344 0-.0625.003907-.125.003907-.191406v-9.476563c20.023437 14.40625 44.574218 22.898438 71.070312 22.898438s51.046875-8.496094 71.070312-22.898438v9.480469c0 .058594.003907.121094.003907.183594 0 .175781.003906.351562.011719.53125zm20.960937-209.214844c-.019531.300781-.046875.601562-.046875.910156v84.160156l-28.488281 18.996094c-9.0625 6.042969-19.613281 9.238282-30.511719 9.238282h-25.371094c-8.28125 0-15 6.714843-15 15 0 8.285156 6.71875 15 15 15h25.371094c16.839844 0 33.148438-4.9375 47.15625-14.28125l8.882812-5.921876c-10.300781 39.542969-46.316406 68.820313-89.039062 68.820313-50.730469 0-92-41.273437-92-92v-99.011719c0-.3125-.027344-.613281-.046875-.917968v-20.519532c.019531-.304687.046875-.605468.046875-.917968 0-25.804688 6.246094-42.851563 18.566406-50.660157 20.070313-12.726562 55.171875-1.023437 66.980469 4.550781 4.0625 1.9375 8.808594 1.933594 12.878906.011719 11.835938-5.582031 46.933594-17.285156 67.007813-4.5625 12.320312 7.808594 18.566406 24.855469 18.566406 50.660157 0 .308593.027344.609374.046875.910156zm70 8.554688v44.511718c0 13.785156-11.214844 25-25 25h-15v-94.511718h15c13.785156 0 25 11.214843 25 25zm-162.046875-173.648438c79.433594 0 116.738281 36.304688 119.789062 117.316406-4.195312-22.9375-14.363281-39.613281-30.394531-49.730468-31.035156-19.589844-73.347656-6.195313-89.394531.117187-16.046875-6.3125-58.359375-19.707031-89.394531-.117187-16.03125 10.117187-26.199219 26.792968-30.394531 49.730468 3.050781-81.011718 40.355468-117.316406 119.789062-117.316406zm-122.046875 243.160156h-15c-13.785156 0-25-11.214844-25-25v-44.511718c0-13.785157 11.214844-25 25-25h15zm-94.824219 202.496094 117.519532-50c2.632812 16.277344 9.171874 38.425781 25.203124 56.339844h-149.867187c1.589844-2.777344 4.066406-5.03125 7.144531-6.339844zm291.019532 6.339844c16.03125-17.914063 22.570312-40.0625 25.203124-56.339844l117.519532 50c3.078125 1.308594 5.550781 3.5625 7.144531 6.339844zm0 0"/></svg>